<svg width="32" height="32" viewBox="0 0 32 32" fill="none" xmlns="http://www.w3.org/2000/svg">
<g clip-path="url(#clip0_2_8)">
<path d="M16 -0.0339966C7.159 -0.0339966 -0.0350037 7.158 -0.0350037 16C-0.0350037 24.842 7.159 32.034 16 32.034C24.841 32.034 32.035 24.842 32.035 16C32.035 7.158 24.841 -0.0339966 16 -0.0339966ZM16 30.966C7.748 30.966 1.035 24.252 1.035 16C1.035 7.748 7.748 1.034 16 1.034C24.252 1.034 30.965 7.748 30.965 16C30.965 24.252 24.252 30.966 16 30.966Z" fill="#ED5625"/>
<path d="M24.794 11.046C24.9049 10.8407 24.9963 10.6254 25.067 10.403C25.0997 10.2998 25.1004 10.1892 25.0689 10.0856C25.0374 9.98209 24.9753 9.89053 24.8907 9.82304C24.8061 9.75555 24.703 9.7153 24.595 9.70762C24.4871 9.69994 24.3793 9.72518 24.286 9.78C23.7736 10.0844 23.2189 10.3112 22.64 10.453C21.9373 9.81878 21.0246 9.46718 20.078 9.466C19.5637 9.4664 19.0548 9.57064 18.5818 9.77246C18.1088 9.97429 17.6814 10.2696 17.3252 10.6406C16.9691 11.0116 16.6915 11.4507 16.5091 11.9315C16.3268 12.4124 16.2434 12.9251 16.264 13.439C14.015 13.1559 11.9613 12.0179 10.529 10.261C10.4741 10.1944 10.404 10.1421 10.3246 10.1085C10.2451 10.0748 10.1588 10.0608 10.0728 10.0677C9.98677 10.0746 9.90371 10.1021 9.83063 10.1479C9.75755 10.1938 9.69662 10.2566 9.65301 10.331C9.32503 10.8939 9.14676 11.5315 9.13521 12.1829C9.12365 12.8343 9.2792 13.4778 9.58701 14.052C9.51151 14.0647 9.43899 14.0912 9.37301 14.13C9.29215 14.1816 9.22558 14.2527 9.17944 14.3367C9.13331 14.4208 9.10908 14.5151 9.10901 14.611C9.10901 15.746 9.61401 16.788 10.428 17.496L10.393 17.531C10.3316 17.6005 10.2893 17.6849 10.2703 17.7757C10.2514 17.8665 10.2565 17.9607 10.285 18.049C10.4547 18.5785 10.7382 19.0646 11.1154 19.4731C11.4927 19.8816 11.9546 20.2027 12.469 20.414C11.4126 20.9293 10.2304 21.1303 9.06301 20.993C8.94301 20.9808 8.82235 21.0087 8.71992 21.0724C8.6175 21.1361 8.5391 21.232 8.49701 21.345C8.45658 21.4589 8.45583 21.5831 8.49485 21.6974C8.53388 21.8118 8.6104 21.9096 8.71201 21.975C10.299 22.9936 12.1453 23.5347 14.031 23.534C20.211 23.534 23.905 18.514 23.905 13.661L23.904 13.497C24.5029 13.0294 25.0232 12.469 25.445 11.837C25.5089 11.7415 25.5403 11.6279 25.5346 11.5131C25.5289 11.3983 25.4864 11.2884 25.4133 11.1997C25.3403 11.1109 25.2406 11.0481 25.1291 11.0204C25.0175 10.9927 24.9001 11.0017 24.794 11.046V11.046ZM23.049 12.801C22.9764 12.8532 22.9181 12.9227 22.8793 13.0032C22.8405 13.0838 22.8226 13.1727 22.827 13.262C22.833 13.394 22.836 13.528 22.836 13.66C22.836 17.988 19.543 22.465 14.032 22.465C13.0491 22.4655 12.0731 22.3005 11.145 21.977C12.2566 21.764 13.3008 21.2873 14.19 20.587C14.2766 20.5188 14.3399 20.4254 14.3714 20.3198C14.4029 20.2142 14.4011 20.1014 14.366 19.9969C14.331 19.8924 14.2646 19.8013 14.1758 19.7359C14.087 19.6706 13.9802 19.6343 13.87 19.632C13.4388 19.6238 13.0156 19.5143 12.6345 19.3125C12.2534 19.1106 11.9251 18.8221 11.676 18.47C11.929 18.453 12.177 18.411 12.418 18.346C12.5346 18.3148 12.6373 18.245 12.7091 18.1479C12.781 18.0509 12.8178 17.9324 12.8136 17.8117C12.8094 17.691 12.7645 17.5753 12.6861 17.4835C12.6077 17.3916 12.5005 17.3291 12.382 17.306C11.895 17.2069 11.4441 16.9774 11.0776 16.6418C10.711 16.3062 10.4426 15.8774 10.301 15.401C10.567 15.468 10.84 15.507 11.113 15.516C11.348 15.515 11.566 15.371 11.639 15.145C11.712 14.919 11.626 14.67 11.427 14.538C10.9565 14.2245 10.5942 13.7734 10.3896 13.2463C10.185 12.7192 10.1482 12.1418 10.284 11.593C12.021 13.3753 14.3666 14.4367 16.852 14.565C17.028 14.566 17.182 14.503 17.289 14.374C17.396 14.245 17.437 14.074 17.399 13.91C17.2622 13.321 17.3234 12.7033 17.5731 12.1526C17.8227 11.6019 18.2469 11.1488 18.78 10.8634C19.3131 10.5781 19.9254 10.4764 20.5221 10.5741C21.1189 10.6719 21.6668 10.9635 22.081 11.404C22.1431 11.4702 22.221 11.5196 22.3074 11.5474C22.3939 11.5752 22.4859 11.5806 22.575 11.563C22.74 11.53 22.903 11.492 23.064 11.448C22.9914 11.5023 22.916 11.5527 22.838 11.599C22.7343 11.6625 22.6553 11.7595 22.6141 11.8739C22.5729 11.9883 22.5719 12.1133 22.6113 12.2284C22.6506 12.3434 22.728 12.4417 22.8307 12.5069C22.9333 12.572 23.0551 12.6003 23.176 12.587L23.358 12.564C23.2578 12.6466 23.1547 12.7256 23.049 12.801V12.801Z" fill="#ED5625"/>
</g>
<defs>
<clipPath id="clip0_2_8">
<rect width="32" height="32" fill="white"/>
</clipPath>
</defs>
</svg>
